# xmcd
#
# Track frame offsets:
#	150
#	16838
#	42961
#	60556
#	87790
#	112255
#	138115
#	162177
#	182707
#	208408
#	238689
#
# Disc length: 3277 seconds
#
# Revision: 0
# Processed by: cddbd v1.4PL0 Copyright (c) Steve Scherf et al.
# Submitted via: dBpowerAMP V4.0
#
DISCID=920ccb0b
DTITLE=Variouswill - Flower
DYEAR=2001
DGENRE=Easy Listening
TTITLE0=Harold Melvin and The Blue Notes - Wake up everybody
TTITLE1=Boz Scaggs - JoJo
TTITLE2=Isley Brothers - Harvest For The World
TTITLE3=Jestofunk - Straight To You
TTITLE4=Michael Allen - Smoke From The Mountain
TTITLE5=Patti Austin - That´s Enough For Me
TTITLE6=Sarah Jane Morris - Tataya Baby
TTITLE7=Man Sueto - In My Life
TTITLE8=Sybil - Make It Easy On Me
TTITLE9=Matt Bianco - More Than I Can Bear
TTITLE10=DATA
EXTD=This CD was bought at "United Colors Of Benetton" Megastore in Hamburg (Germany).
EXTT0=
EXTT1=
EXTT2=
EXTT3=
EXTT4=
EXTT5=
EXTT6=
EXTT7=
EXTT8=
EXTT9=
EXTT10=
PLAYORDER=
